<?xml version="1.0" encoding="utf-8"?>
<!-- Generator: Adobe Illustrator 21.0.0, SVG Export Plug-In . SVG Version: 6.00 Build 0)  -->
<svg version="1.1" id="Layer_1" xmlns="http://www.w3.org/2000/svg" xmlns:xlink="http://www.w3.org/1999/xlink" x="0px" y="0px"
	 viewBox="0 0 24.1 21.1" style="enable-background:new 0 0 21.1 21.1;" xml:space="preserve">
<style type="text/css">
	.st0{fill:#222;}
	.st1{fill:#0080ff;}
</style>
<g>
	<path class="st1" d="M10.8,0.3C5.2,0.3,0.7,4.9,0.7,10.6c0,5.6,4.5,10.2,10.1,10.2c5.6,0,10.1-4.6,10.1-10.2
		C20.9,4.9,16.4,0.3,10.8,0.3z M16.1,0.8c3.4,1.9,5.8,5.6,5.8,9.8c0,4.2-2.3,7.9-5.8,9.8c4.3-1.3,7.3-5.3,7.3-9.8
		C23.3,6,20.4,2,16.1,0.8z M11,2.7c0.5,0,1,0.5,1,1l0,0.3c1,0.2,1.9,0.5,2.7,0.9c0.4,0.2,0.7,0.6,0.7,1.2c0,0.7-0.6,1.3-1.3,1.3
		c-0.2,0-0.5-0.1-0.7-0.2c-0.5-0.3-1.1-0.5-1.6-0.7l0,2.9c2.9,0.8,4.1,2,4.1,4.2c0,2.1-1.7,3.5-4.1,3.7l0,1c0,0.6-0.4,1-1,1
		c-0.5,0-1-0.5-1-1l0-1c-1.3-0.2-2.6-0.7-3.7-1.4c-0.4-0.3-0.6-0.6-0.6-1.2c0-0.7,0.6-1.3,1.3-1.3c0.2,0,0.5,0.1,0.7,0.3
		c0.8,0.5,1.5,0.9,2.4,1.1l0-3c-2.7-0.8-4.1-1.8-4-4.1c0-2.1,1.6-3.5,4-3.7l0-0.2C10,3.2,10.4,2.7,11,2.7z M10,6.3
		C9.1,6.5,8.7,6.9,8.7,7.5c0,0.6,0.3,1,1.3,1.4L10,6.3z M11.8,12.3l0,2.7c0.9-0.1,1.4-0.5,1.4-1.2C13.1,13.1,12.8,12.6,11.8,12.3z"
		/>
</g>
</svg>
